# Blender 5.0.0
# www.blender.org
mtllib Darkmatter.mtl
o Icosphere
v 0.000000 -0.930305 -0.000000
v 0.673174 -0.416049 0.489085
v -0.257126 -0.416049 0.791362
v -0.832088 -0.416047 -0.000000
v -0.257126 -0.416049 -0.791362
v 0.673174 -0.416049 -0.489085
v 0.257126 0.416049 0.791362
v -0.673174 0.416049 0.489085
v -0.673174 0.416049 -0.489085
v 0.257126 0.416049 -0.791362
v 0.832088 0.416047 0.000000
v -0.000000 0.930305 0.000000
v -0.150250 -0.786741 0.462429
v 0.393367 -0.786741 0.285795
v 0.243117 -0.486235 0.748227
v 0.786735 -0.486234 -0.000000
v 0.393367 -0.786741 -0.285795
v -0.486229 -0.786739 0.000000
v -0.636482 -0.486234 0.462430
v -0.150250 -0.786741 -0.462429
v -0.636482 -0.486234 -0.462430
v 0.243117 -0.486235 -0.748227
v 0.879599 -0.000000 0.285796
v 0.879599 -0.000000 -0.285796
v 0.000000 -0.000000 0.924864
v 0.543622 -0.000000 0.748230
v -0.879599 0.000000 0.285796
v -0.543622 0.000000 0.748230
v -0.543622 0.000000 -0.748230
v -0.879599 0.000000 -0.285796
v 0.543622 -0.000000 -0.748230
v -0.000000 0.000000 -0.924864
v 0.636482 0.486234 0.462430
v -0.243118 0.486235 0.748227
v -0.786735 0.486234 -0.000000
v -0.243117 0.486235 -0.748227
v 0.636482 0.486234 -0.462430
v 0.150250 0.786741 0.462429
v 0.486229 0.786739 -0.000000
v -0.393367 0.786741 0.285795
v -0.393367 0.786741 -0.285795
v 0.150250 0.786741 -0.462429
v -0.073931 -0.898430 0.227539
v 0.563546 -0.615787 0.409436
v -0.021694 -0.467922 0.803114
v 0.757104 -0.467921 0.268809
v 0.563546 -0.615787 -0.409436
v -0.239250 -0.898430 0.000000
v -0.770514 -0.467920 0.227540
v -0.073931 -0.898431 -0.227539
v -0.454504 -0.467922 -0.662487
v 0.489615 -0.467922 -0.636978
v 0.802799 -0.228668 0.409437
v 0.890141 0.228667 -0.140627
v -0.141321 -0.228668 0.890030
v 0.408812 0.228668 0.803117
v -0.890141 -0.228667 0.140627
v -0.637480 0.228668 0.636979
v -0.408812 -0.228668 -0.803117
v -0.802799 0.228668 -0.409437
v 0.637480 -0.228668 -0.636979
v 0.141321 0.228668 -0.890030
v 0.454504 0.467922 0.662487
v -0.489615 0.467922 0.636978
v -0.757104 0.467921 -0.268809
v 0.021694 0.467922 -0.803114
v 0.770514 0.467920 -0.227540
v 0.215252 0.615787 0.662486
v 0.239250 0.898430 0.000000
v -0.563546 0.615787 0.409436
v -0.563546 0.615787 -0.409436
v 0.215252 0.615787 -0.662486
v -0.215252 -0.615787 0.662486
v 0.193558 -0.898431 0.140627
v 0.489615 -0.467922 0.636978
v 0.757104 -0.467921 -0.268809
v 0.193558 -0.898431 -0.140626
v -0.696581 -0.615785 -0.000000
v -0.454504 -0.467922 0.662487
v -0.215252 -0.615787 -0.662486
v -0.770514 -0.467920 -0.227540
v -0.021694 -0.467922 -0.803114
v 0.890141 0.228667 0.140627
v 0.802799 -0.228668 -0.409437
v 0.141321 0.228668 0.890030
v 0.637480 -0.228668 0.636979
v -0.802799 0.228668 0.409437
v -0.408812 -0.228668 0.803116
v -0.637480 0.228668 -0.636979
v -0.890141 -0.228667 -0.140627
v 0.408812 0.228668 -0.803117
v -0.141321 -0.228668 -0.890030
v 0.770514 0.467920 0.227540
v 0.021694 0.467922 0.803114
v -0.757104 0.467921 0.268809
v -0.489615 0.467922 -0.636978
v 0.454504 0.467922 -0.662487
v 0.073931 0.898430 0.227539
v 0.696581 0.615785 -0.000000
v -0.193558 0.898431 0.140627
v -0.193558 0.898431 -0.140627
v 0.073931 0.898430 -0.227539
v 0.339247 0.822416 -0.246477
v 0.583871 0.671232 -0.246477
v 0.414839 0.671233 -0.479126
v -0.129583 0.822417 -0.398807
v -0.053992 0.671233 -0.631458
v -0.327487 0.671233 -0.542592
v -0.419333 0.822417 0.000000
v -0.617237 0.671233 -0.143784
v -0.617237 0.671233 0.143784
v -0.129583 0.822417 0.398807
v -0.327487 0.671233 0.542592
v -0.053992 0.671234 0.631458
v 0.339247 0.822416 0.246477
v 0.414839 0.671233 0.479126
v 0.583871 0.671232 0.246477
v 0.793540 0.251895 -0.398809
v 0.746822 0.007270 -0.542595
v 0.624509 0.251896 -0.631460
v -0.134077 0.251896 -0.877939
v -0.285260 0.007270 -0.877940
v -0.407573 0.251896 -0.789074
v -0.876403 0.251896 -0.143784
v -0.923123 0.007270 0.000000
v -0.876403 0.251896 0.143784
v -0.407573 0.251896 0.789074
v -0.285260 0.007270 0.877940
v -0.134077 0.251896 0.877939
v 0.624509 0.251896 0.631460
v 0.746822 0.007270 0.542595
v 0.793540 0.251895 0.398809
v 0.285260 -0.007270 -0.877940
v 0.407573 -0.251896 -0.789074
v 0.134077 -0.251896 -0.877939
v -0.746822 -0.007270 -0.542595
v -0.624509 -0.251896 -0.631460
v -0.793540 -0.251895 -0.398809
v -0.746822 -0.007270 0.542595
v -0.793540 -0.251895 0.398809
v -0.624509 -0.251896 0.631460
v 0.285260 -0.007270 0.877940
v 0.134077 -0.251896 0.877939
v 0.407573 -0.251896 0.789074
v 0.923123 -0.007270 -0.000000
v 0.876403 -0.251896 0.143784
v 0.876403 -0.251896 -0.143784
v 0.327487 -0.671233 -0.542592
v 0.129583 -0.822417 -0.398807
v 0.053992 -0.671234 -0.631458
v -0.414839 -0.671233 -0.479126
v -0.339247 -0.822416 -0.246477
v -0.583871 -0.671232 -0.246477
v -0.583871 -0.671232 0.246477
v -0.339247 -0.822416 0.246477
v -0.414839 -0.671233 0.479126
v 0.617237 -0.671233 -0.143784
v 0.617237 -0.671233 0.143784
v 0.419333 -0.822417 -0.000000
v 0.053992 -0.671233 0.631458
v 0.129583 -0.822417 0.398807
v 0.327487 -0.671233 0.542592
v 0.085689 -0.888288 0.263719
v 0.657405 -0.597910 0.276164
v -0.224334 -0.888287 0.162988
v -0.224334 -0.888287 -0.162988
v 0.085689 -0.888288 -0.263719
v 0.828783 -0.320615 0.276165
v -0.006541 -0.320615 0.873558
v -0.832827 -0.320613 0.263720
v -0.508170 -0.320615 -0.710570
v 0.518761 -0.320615 -0.702876
v 0.743096 -0.149236 0.539887
v -0.283836 -0.149236 0.873560
v -0.918516 -0.149235 0.000000
v -0.283836 -0.149236 -0.873560
v 0.743096 -0.149236 -0.539887
v 0.369522 0.597910 0.609836
v -0.465802 0.597910 0.539885
v -0.657405 0.597910 -0.276164
v 0.059498 0.597910 -0.710568
v 0.694179 0.597908 -0.162988
v 0.224334 0.888287 -0.162988
v 0.453115 0.733163 -0.329207
v 0.369522 0.597910 -0.609835
v -0.085689 0.888288 -0.263719
v -0.173077 0.733164 -0.532667
v -0.465802 0.597910 -0.539885
v -0.277292 0.888288 0.000000
v -0.560082 0.733164 0.000000
v -0.657405 0.597910 0.276164
v -0.085689 0.888288 0.263719
v -0.173077 0.733164 0.532667
v 0.059498 0.597910 0.710568
v 0.224334 0.888287 0.162988
v 0.453115 0.733163 0.329207
v 0.694179 0.597908 0.162988
v 0.832827 0.320613 -0.263720
v 0.733160 0.173077 -0.532669
v 0.508170 0.320615 -0.710570
v 0.006541 0.320615 -0.873558
v -0.280043 0.173078 -0.861879
v -0.518761 0.320615 -0.702876
v -0.828783 0.320615 -0.276165
v -0.906235 0.173077 -0.000000
v -0.828783 0.320615 0.276165
v -0.518761 0.320615 0.702876
v -0.280043 0.173078 0.861879
v 0.006541 0.320615 0.873558
v 0.508170 0.320615 0.710570
v 0.733160 0.173077 0.532669
v 0.832827 0.320613 0.263720
v 0.283836 0.149236 -0.873560
v 0.280043 -0.173078 -0.861879
v -0.006541 -0.320615 -0.873558
v -0.743096 0.149236 -0.539887
v -0.733160 -0.173077 -0.532669
v -0.832827 -0.320613 -0.263720
v -0.743096 0.149236 0.539887
v -0.733160 -0.173077 0.532669
v -0.508170 -0.320615 0.710570
v 0.283836 0.149236 0.873560
v 0.280043 -0.173078 0.861879
v 0.518761 -0.320615 0.702876
v 0.918517 0.149235 -0.000000
v 0.906235 -0.173077 -0.000000
v 0.828783 -0.320615 -0.276165
v 0.465802 -0.597910 -0.539885
v 0.173077 -0.733164 -0.532667
v -0.059498 -0.597910 -0.710568
v -0.369522 -0.597910 -0.609835
v -0.453115 -0.733163 -0.329207
v -0.694179 -0.597908 -0.162988
v -0.694179 -0.597908 0.162988
v -0.453115 -0.733163 0.329207
v -0.369522 -0.597910 0.609835
v 0.657405 -0.597910 -0.276164
v 0.560082 -0.733164 -0.000000
v 0.277292 -0.888288 0.000000
v -0.059498 -0.597910 0.710568
v 0.173077 -0.733164 0.532667
v 0.465802 -0.597910 0.539885
vn 0.0463 -0.9887 0.1425
vn 0.2738 -0.9021 0.3335
vn -0.0255 -0.9021 0.4307
vn 0.7233 -0.5506 0.4167
vn 0.5657 -0.7769 0.2765
vn 0.7823 -0.6114 0.1191
vn -0.1212 -0.9887 0.0881
vn -0.2325 -0.9021 0.3635
vn -0.4175 -0.9021 0.1088
vn -0.1212 -0.9887 -0.0881
vn -0.4175 -0.9021 -0.1088
vn -0.2325 -0.9021 -0.3635
vn 0.0463 -0.9887 -0.1425
vn -0.0255 -0.9021 -0.4307
vn 0.2738 -0.9021 -0.3335
vn 0.8159 -0.4008 0.4167
vn 0.8967 -0.4263 0.1191
vn 0.9479 -0.1585 0.2765
vn -0.1442 -0.4008 0.9048
vn 0.1638 -0.4263 0.8896
vn 0.0300 -0.1585 0.9869
vn -0.9050 -0.4008 0.1425
vn -0.7955 -0.4263 0.4307
vn -0.9293 -0.1585 0.3335
vn -0.4152 -0.4008 -0.8167
vn -0.6554 -0.4263 -0.6234
vn -0.6043 -0.1585 -0.7808
vn 0.6484 -0.4008 -0.6472
vn 0.3904 -0.4263 -0.8160
vn 0.5559 -0.1585 -0.8160
vn 0.7696 -0.3082 0.5592
vn 0.8906 -0.0441 0.4526
vn 0.7056 -0.0441 0.7072
vn -0.2940 -0.3082 0.9048
vn -0.1552 -0.0441 0.9869
vn -0.4545 -0.0441 0.8896
vn -0.9513 -0.3082 -0.0000
vn -0.9866 -0.0441 0.1574
vn -0.9866 -0.0441 -0.1574
vn -0.2940 -0.3082 -0.9048
vn -0.4545 -0.0441 -0.8896
vn -0.1552 -0.0441 -0.9869
vn 0.7696 -0.3082 -0.5592
vn 0.7056 -0.0441 -0.7072
vn 0.8906 -0.0441 -0.4526
vn 0.3403 0.5506 0.7623
vn 0.5629 0.6114 0.5562
vn 0.2951 0.7769 0.5562
vn -0.6198 0.5506 0.5592
vn -0.3550 0.6114 0.7072
vn -0.4378 0.7769 0.4526
vn -0.7233 0.5506 -0.4167
vn -0.7823 0.6114 -0.1191
vn -0.5657 0.7769 -0.2765
vn 0.1728 0.5506 -0.8167
vn -0.1285 0.6114 -0.7808
vn 0.0881 0.7769 -0.6234
vn 0.8301 0.5506 -0.0881
vn 0.7029 0.6114 -0.3635
vn 0.6202 0.7769 -0.1088
vn 0.4175 0.9021 -0.1088
vn 0.2325 0.9021 -0.3635
vn 0.1212 0.9887 -0.0881
vn 0.5164 0.8355 -0.1879
vn 0.5960 0.6762 -0.4330
vn 0.3383 0.8355 -0.4330
vn 0.5629 0.6114 -0.5562
vn 0.3403 0.5506 -0.7623
vn 0.2951 0.7769 -0.5562
vn 0.0255 0.9021 -0.4307
vn -0.2738 0.9021 -0.3335
vn -0.0463 0.9887 -0.1425
vn -0.0191 0.8355 -0.5492
vn -0.2277 0.6762 -0.7006
vn -0.3073 0.8355 -0.4555
vn -0.3550 0.6114 -0.7072
vn -0.6198 0.5506 -0.5592
vn -0.4378 0.7769 -0.4526
vn -0.4017 0.9021 -0.1574
vn -0.4017 0.9021 0.1574
vn -0.1498 0.9887 -0.0000
vn -0.5282 0.8355 -0.1515
vn -0.7367 0.6762 -0.0000
vn -0.5282 0.8355 0.1515
vn -0.7823 0.6114 0.1191
vn -0.7233 0.5506 0.4167
vn -0.5657 0.7769 0.2765
vn -0.2738 0.9021 0.3335
vn 0.0255 0.9021 0.4307
vn -0.0463 0.9887 0.1425
vn -0.3073 0.8355 0.4555
vn -0.2277 0.6762 0.7006
vn -0.0191 0.8355 0.5492
vn -0.1285 0.6114 0.7808
vn 0.1728 0.5506 0.8167
vn 0.0881 0.7769 0.6234
vn 0.2325 0.9021 0.3635
vn 0.4175 0.9021 0.1088
vn 0.1212 0.9887 0.0881
vn 0.3383 0.8355 0.4330
vn 0.5960 0.6762 0.4330
vn 0.5164 0.8355 0.1879
vn 0.7029 0.6114 0.3635
vn 0.8301 0.5506 0.0881
vn 0.6202 0.7769 0.1088
vn 0.9293 0.1585 -0.3335
vn 0.7955 0.4263 -0.4307
vn 0.9050 0.4008 -0.1425
vn 0.8847 0.0988 -0.4555
vn 0.7066 0.0988 -0.7006
vn 0.7559 0.3565 -0.5492
vn 0.6043 0.1585 -0.7808
vn 0.4152 0.4008 -0.8167
vn 0.6554 0.4263 -0.6234
vn -0.0300 0.1585 -0.9869
vn -0.1638 0.4263 -0.8896
vn 0.1442 0.4008 -0.9048
vn -0.1598 0.0988 -0.9822
vn -0.4480 0.0988 -0.8886
vn -0.2887 0.3565 -0.8886
vn -0.5559 0.1585 -0.8160
vn -0.6484 0.4008 -0.6472
vn -0.3904 0.4263 -0.8160
vn -0.9479 0.1585 -0.2765
vn -0.8967 0.4263 -0.1191
vn -0.8159 0.4008 -0.4167
vn -0.9835 0.0988 -0.1515
vn -0.9835 0.0988 0.1515
vn -0.9343 0.3565 -0.0000
vn -0.9479 0.1585 0.2765
vn -0.8159 0.4008 0.4167
vn -0.8967 0.4263 0.1191
vn -0.5559 0.1585 0.8160
vn -0.3904 0.4263 0.8160
vn -0.6484 0.4008 0.6472
vn -0.4480 0.0988 0.8886
vn -0.1598 0.0988 0.9822
vn -0.2887 0.3565 0.8886
vn -0.0300 0.1585 0.9869
vn 0.1442 0.4008 0.9048
vn -0.1638 0.4263 0.8896
vn 0.6043 0.1585 0.7808
vn 0.6554 0.4263 0.6234
vn 0.4152 0.4008 0.8167
vn 0.7066 0.0988 0.7006
vn 0.8847 0.0988 0.4555
vn 0.7559 0.3565 0.5492
vn 0.9293 0.1585 0.3335
vn 0.9050 0.4008 0.1425
vn 0.7955 0.4263 0.4307
vn 0.4545 0.0441 -0.8896
vn 0.1552 0.0441 -0.9869
vn 0.2940 0.3082 -0.9048
vn 0.4480 -0.0988 -0.8886
vn 0.2887 -0.3565 -0.8886
vn 0.1598 -0.0988 -0.9822
vn 0.1638 -0.4263 -0.8896
vn -0.1442 -0.4008 -0.9048
vn 0.0300 -0.1585 -0.9869
vn -0.7056 0.0441 -0.7072
vn -0.8906 0.0441 -0.4526
vn -0.7696 0.3082 -0.5592
vn -0.7066 -0.0988 -0.7006
vn -0.7559 -0.3565 -0.5492
vn -0.8847 -0.0988 -0.4555
vn -0.7955 -0.4263 -0.4307
vn -0.9050 -0.4008 -0.1425
vn -0.9293 -0.1585 -0.3335
vn -0.8906 0.0441 0.4526
vn -0.7056 0.0441 0.7072
vn -0.7696 0.3082 0.5592
vn -0.8847 -0.0988 0.4555
vn -0.7559 -0.3565 0.5492
vn -0.7066 -0.0988 0.7006
vn -0.6554 -0.4263 0.6234
vn -0.4152 -0.4008 0.8167
vn -0.6043 -0.1585 0.7808
vn 0.1552 0.0441 0.9869
vn 0.4545 0.0441 0.8896
vn 0.2940 0.3082 0.9048
vn 0.1598 -0.0988 0.9822
vn 0.2887 -0.3565 0.8886
vn 0.4480 -0.0988 0.8886
vn 0.3904 -0.4263 0.8160
vn 0.6484 -0.4008 0.6472
vn 0.5559 -0.1585 0.8160
vn 0.9866 0.0441 0.1574
vn 0.9866 0.0441 -0.1574
vn 0.9513 0.3082 -0.0000
vn 0.9835 -0.0988 0.1515
vn 0.9343 -0.3565 -0.0000
vn 0.9835 -0.0988 -0.1515
vn 0.8967 -0.4263 -0.1191
vn 0.8159 -0.4008 -0.4167
vn 0.9479 -0.1585 -0.2765
vn 0.4378 -0.7769 -0.4526
vn 0.3550 -0.6114 -0.7072
vn 0.6198 -0.5506 -0.5592
vn 0.3073 -0.8355 -0.4555
vn 0.0191 -0.8355 -0.5492
vn 0.2277 -0.6762 -0.7006
vn -0.0881 -0.7769 -0.6234
vn -0.1728 -0.5506 -0.8167
vn 0.1285 -0.6114 -0.7808
vn -0.2951 -0.7769 -0.5562
vn -0.5629 -0.6114 -0.5562
vn -0.3403 -0.5506 -0.7623
vn -0.3383 -0.8355 -0.4330
vn -0.5164 -0.8355 -0.1879
vn -0.5960 -0.6762 -0.4330
vn -0.6202 -0.7769 -0.1088
vn -0.8301 -0.5506 -0.0881
vn -0.7029 -0.6114 -0.3635
vn -0.6202 -0.7769 0.1088
vn -0.7029 -0.6114 0.3635
vn -0.8301 -0.5506 0.0881
vn -0.5164 -0.8355 0.1879
vn -0.3383 -0.8355 0.4330
vn -0.5960 -0.6762 0.4330
vn -0.2951 -0.7769 0.5562
vn -0.3403 -0.5506 0.7623
vn -0.5629 -0.6114 0.5562
vn 0.7823 -0.6114 -0.1191
vn 0.5657 -0.7769 -0.2765
vn 0.7233 -0.5506 -0.4167
vn 0.7367 -0.6762 -0.0000
vn 0.5282 -0.8355 0.1515
vn 0.5282 -0.8355 -0.1515
vn 0.4017 -0.9021 0.1574
vn 0.1498 -0.9887 -0.0000
vn 0.4017 -0.9021 -0.1574
vn -0.0881 -0.7769 0.6234
vn 0.1285 -0.6114 0.7808
vn -0.1728 -0.5506 0.8167
vn 0.0191 -0.8355 0.5492
vn 0.3073 -0.8355 0.4555
vn 0.2277 -0.6762 0.7006
vn 0.4378 -0.7769 0.4526
vn 0.6198 -0.5506 0.5592
vn 0.3550 -0.6114 0.7072
vt 0.259816 0.868828
vt 0.238558 0.817810
vt 0.272250 0.803549
vt 0.298435 0.828358
vt 0.209267 0.760835
vt 0.274962 0.767546
vt 0.238558 0.817810
vt 0.341674 0.779783
vt 0.274962 0.767546
vt 0.146412 0.658195
vt 0.177201 0.707197
vt 0.142344 0.723920
vt 0.110688 0.706795
vt 0.140325 0.759323
vt 0.177201 0.707197
vt 0.067795 0.756194
vt 0.110688 0.706795
vt 0.140325 0.759323
vt 0.298435 0.828358
vt 0.317021 0.857423
vt 0.301273 0.893146
vt 0.344713 0.850096
vt 0.298435 0.828358
vt 0.347753 0.920410
vt 0.301273 0.893146
vt 0.344714 0.850096
vt 0.301273 0.893146
vt 0.277778 0.924324
vt 0.243339 0.922287
vt 0.284898 0.952071
vt 0.222043 0.983732
vt 0.243339 0.922287
vt 0.284898 0.952071
vt 0.208906 0.911539
vt 0.204911 0.875172
vt 0.178805 0.931476
vt 0.140887 0.877411
vt 0.178805 0.931476
vt 0.110688 0.706795
vt 0.084406 0.689313
vt 0.091972 0.655965
vt 0.052663 0.704964
vt 0.037532 0.653735
vt 0.091972 0.655965
vt 0.141858 0.533738
vt 0.121007 0.569854
vt 0.089655 0.546595
vt 0.089600 0.515355
vt 0.098184 0.609385
vt 0.064055 0.550272
vt 0.029926 0.491159
vt 0.352164 0.418093
vt 0.302087 0.451449
vt 0.284325 0.418093
vt 0.302087 0.384737
vt 0.247641 0.485670
vt 0.247883 0.418093
vt 0.302087 0.451449
vt 0.247641 0.350516
vt 0.302087 0.384737
vt 0.899538 0.368495
vt 0.844441 0.372874
vt 0.846492 0.334777
vt 0.880116 0.316749
vt 0.780377 0.372825
vt 0.815274 0.314933
vt 0.844441 0.372874
vt 0.852879 0.258763
vt 0.815274 0.314933
vt 0.444323 0.317625
vt 0.390859 0.292004
vt 0.405100 0.259108
vt 0.440475 0.257578
vt 0.337394 0.266384
vt 0.386377 0.227727
vt 0.438061 0.193315
vt 0.440475 0.257578
vt 0.790629 0.832662
vt 0.749594 0.785096
vt 0.783720 0.767078
vt 0.819565 0.782583
vt 0.708560 0.737531
vt 0.780850 0.731806
vt 0.749594 0.785096
vt 0.849778 0.727841
vt 0.089600 0.515355
vt 0.098555 0.483542
vt 0.133533 0.481653
vt 0.079039 0.452490
vt 0.130594 0.418092
vt 0.079039 0.452490
vt 0.302087 0.384737
vt 0.321099 0.354867
vt 0.356708 0.358981
vt 0.303284 0.322962
vt 0.302087 0.384737
vt 0.361252 0.299869
vt 0.356708 0.358981
vt 0.303284 0.322962
vt 0.914296 0.303701
vt 0.939579 0.329430
vt 0.918292 0.267816
vt 0.984525 0.282429
vt 0.939579 0.329430
vt 0.440475 0.257578
vt 0.478243 0.258873
vt 0.498249 0.290933
vt 0.496464 0.227313
vt 0.555108 0.260892
vt 0.498249 0.290933
vt 0.496464 0.227313
vt 0.896438 0.618108
vt 0.841340 0.613730
vt 0.844034 0.577242
vt 0.878062 0.565271
vt 0.777276 0.613779
vt 0.813240 0.558393
vt 0.854584 0.504625
vt 0.878062 0.565271
vt 0.813240 0.558393
vt 0.345597 0.744676
vt 0.374100 0.689129
vt 0.404071 0.704917
vt 0.403363 0.741793
vt 0.402602 0.633582
vt 0.435771 0.685714
vt 0.374100 0.689129
vt 0.465859 0.739904
vt 0.403363 0.741794
vt 0.435771 0.685714
vt 0.471385 0.959120
vt 0.435661 0.910520
vt 0.467317 0.893395
vt 0.502174 0.910117
vt 0.392768 0.861121
vt 0.465298 0.857991
vt 0.534240 0.856480
vt 0.502174 0.910117
vt 0.449325 0.077669
vt 0.428474 0.041553
vt 0.464292 0.026031
vt 0.491374 0.041604
vt 0.405651 0.002022
vt 0.473908 0.002023
vt 0.542164 0.002023
vt 0.491374 0.041604
vt 0.659631 0.193314
vt 0.609554 0.159958
vt 0.628566 0.130087
vt 0.664175 0.134202
vt 0.555108 0.125737
vt 0.610751 0.098183
vt 0.609554 0.159958
vt 0.668719 0.075089
vt 0.610751 0.098183
vt 0.672726 0.696904
vt 0.669686 0.767218
vt 0.641993 0.759891
vt 0.626246 0.724168
vt 0.666647 0.837531
vt 0.623408 0.788956
vt 0.669686 0.767218
vt 0.584789 0.748486
vt 0.626246 0.724168
vt 0.623408 0.788956
vt 0.589459 0.066239
vt 0.605441 0.038556
vt 0.551097 0.063890
vt 0.605441 0.038556
vt 0.551097 0.063890
vt 0.498593 0.096502
vt 0.514447 0.065265
vt 0.491374 0.041604
vt 0.498594 0.096502
vt 0.599935 0.849768
vt 0.597223 0.813765
vt 0.563531 0.799505
vt 0.599935 0.849768
vt 0.623408 0.788956
vt 0.563531 0.799505
vt 0.631409 0.900556
vt 0.599757 0.887028
vt 0.596171 0.963580
vt 0.566855 0.909188
vt 0.631409 0.900556
vt 0.566855 0.909188
vt 0.533778 0.961350
vt 0.534624 0.927486
vt 0.566855 0.909188
vt 0.502174 0.910117
vt 0.498666 0.799004
vt 0.530573 0.780288
vt 0.529884 0.742143
vt 0.498666 0.799003
vt 0.464598 0.818987
vt 0.430864 0.799418
vt 0.498666 0.799004
vt 0.430864 0.799418
vt 0.369183 0.802898
vt 0.400792 0.780763
vt 0.430864 0.799418
vt 0.403363 0.741794
vt 0.369183 0.802898
vt 0.403363 0.741794
vt 0.503778 0.685838
vt 0.533879 0.705776
vt 0.547015 0.633582
vt 0.568312 0.695028
vt 0.503778 0.685838
vt 0.435771 0.685714
vt 0.471170 0.667811
vt 0.474809 0.633582
vt 0.435771 0.685714
vt 0.982476 0.563418
vt 0.937000 0.592325
vt 0.912406 0.562005
vt 0.918530 0.534022
vt 0.878062 0.565271
vt 0.937000 0.592325
vt 0.609870 0.665243
vt 0.602751 0.692990
vt 0.568312 0.695028
vt 0.780009 0.541542
vt 0.782423 0.507205
vt 0.745272 0.560698
vt 0.710263 0.509784
vt 0.714887 0.617899
vt 0.714278 0.581020
vt 0.745272 0.560698
vt 0.657262 0.622843
vt 0.683762 0.566313
vt 0.745272 0.560698
vt 0.555350 0.193314
vt 0.591792 0.193314
vt 0.609554 0.226670
vt 0.609554 0.159958
vt 0.555350 0.193314
vt 0.496464 0.227313
vt 0.516092 0.193314
vt 0.555350 0.193314
vt 0.496464 0.159316
vt 0.555350 0.193314
vt 0.441000 0.129754
vt 0.478392 0.128014
vt 0.496464 0.159316
vt 0.498593 0.096502
vt 0.441000 0.129754
vt 0.496464 0.159316
vt 0.337393 0.120248
vt 0.371522 0.061135
vt 0.397122 0.064813
vt 0.397067 0.096052
vt 0.428474 0.041553
vt 0.371522 0.061135
vt 0.397067 0.096052
vt 0.428474 0.041553
vt 0.919444 0.230574
vt 0.951559 0.218185
vt 0.887355 0.207252
vt 0.918292 0.267816
vt 0.918594 0.153942
vt 0.887355 0.207252
vt 0.822665 0.204021
vt 0.855798 0.187815
vt 0.887355 0.207252
vt 0.793729 0.153942
vt 0.856161 0.153942
vt 0.856162 0.153942
vt 0.362505 0.963580
vt 0.377636 0.912351
vt 0.409379 0.928002
vt 0.416945 0.961350
vt 0.377636 0.912351
vt 0.435661 0.910520
vt 0.281992 0.291018
vt 0.297974 0.263335
vt 0.243682 0.288550
vt 0.234696 0.226801
vt 0.297974 0.263335
vt 0.243682 0.288550
vt 0.190782 0.320474
vt 0.207144 0.289074
vt 0.136856 0.293782
vt 0.185776 0.260292
vt 0.190782 0.320474
vt 0.185776 0.260292
vt 0.078910 0.383680
vt 0.097633 0.352299
vt 0.133008 0.353829
vt 0.029927 0.345023
vt 0.083391 0.319403
vt 0.078910 0.383680
vt 0.133008 0.353829
vt 0.083391 0.319403
vt 0.079039 0.452490
vt 0.061892 0.418091
vt 0.078910 0.383680
vt 0.029926 0.418091
vt 0.029926 0.418091
vt 0.981424 0.704175
vt 0.936478 0.657174
vt 0.954013 0.627463
vt 0.981950 0.633796
vt 0.936478 0.657174
vt 0.937000 0.592325
vt 0.812173 0.671670
vt 0.843391 0.651827
vt 0.877015 0.669855
vt 0.841340 0.613730
vt 0.812173 0.671670
vt 0.778840 0.692858
vt 0.744429 0.674506
vt 0.744429 0.674506
vt 0.682911 0.680187
vt 0.713710 0.656936
vt 0.744429 0.674506
vt 0.714887 0.617899
vt 0.682911 0.680187
vt 0.714887 0.617899
vt 0.386506 0.158918
vt 0.406022 0.127865
vt 0.397067 0.096052
vt 0.386506 0.158918
vt 0.441000 0.129754
vt 0.386377 0.227727
vt 0.369359 0.193316
vt 0.337393 0.193316
vt 0.386377 0.227727
vt 0.337393 0.193316
vt 0.985576 0.423186
vt 0.940100 0.394279
vt 0.957114 0.359140
vt 0.985050 0.352807
vt 0.939579 0.329430
vt 0.939579 0.329430
vt 0.783951 0.254798
vt 0.786820 0.219525
vt 0.711660 0.249072
vt 0.752695 0.201507
vt 0.822665 0.204021
vt 0.815274 0.314933
vt 0.781941 0.293745
vt 0.747529 0.312097
vt 0.815274 0.314933
vt 0.783951 0.254798
vt 0.747529 0.312097
vt 0.717988 0.368704
vt 0.716810 0.329667
vt 0.660362 0.363761
vt 0.686011 0.306417
vt 0.717987 0.368704
vt 0.188997 0.384094
vt 0.170776 0.352534
vt 0.188997 0.384094
vt 0.247883 0.418093
vt 0.208626 0.418093
vt 0.188997 0.452091
vt 0.188997 0.384094
vt 0.188997 0.452091
vt 0.191126 0.514905
vt 0.170925 0.483393
vt 0.188997 0.452091
vt 0.133533 0.481653
vt 0.191126 0.514905
vt 0.188997 0.452091
vt 0.915192 0.718787
vt 0.911196 0.682903
vt 0.936478 0.657174
vt 0.877015 0.669855
vt 0.915192 0.718787
vt 0.936478 0.657174
vt 0.948459 0.768418
vt 0.916344 0.756029
vt 0.915494 0.832662
vt 0.884254 0.779351
vt 0.948459 0.768418
vt 0.915192 0.718787
vt 0.884255 0.779351
vt 0.853061 0.832662
vt 0.852698 0.798789
vt 0.884255 0.779351
vt 0.819565 0.782583
vt 0.884255 0.779351
vt 0.668719 0.311538
vt 0.610751 0.288445
vt 0.628566 0.256540
vt 0.664175 0.252426
vt 0.609554 0.226670
vt 0.605441 0.348072
vt 0.589459 0.320389
vt 0.610751 0.288445
vt 0.542163 0.384606
vt 0.551149 0.322858
vt 0.605441 0.348072
vt 0.551149 0.322858
vt 0.493243 0.351116
vt 0.514611 0.322333
vt 0.551149 0.322858
vt 0.493243 0.351116
vt 0.498249 0.290933
vt 0.110798 0.931601
vt 0.079098 0.912398
vt 0.078390 0.875522
vt 0.077630 0.983733
vt 0.049127 0.928186
vt 0.110798 0.931601
vt 0.020625 0.872639
vt 0.078390 0.875522
vt 0.049127 0.928186
vt 0.146197 0.949504
vt 0.110798 0.931601
vt 0.149836 0.983733
vt 0.178805 0.931476
vt 0.857684 0.481978
vt 0.881162 0.421332
vt 0.915506 0.424598
vt 0.921630 0.452582
vt 0.940100 0.394279
vt 0.881162 0.421332
vt 0.921630 0.452582
vt 0.816340 0.428211
vt 0.847135 0.409361
vt 0.881162 0.421332
vt 0.844441 0.372874
vt 0.785524 0.479399
vt 0.783109 0.445062
vt 0.816340 0.428211
vt 0.713363 0.476819
vt 0.748372 0.425906
vt 0.816341 0.428211
vt 0.748372 0.425906
vt 0.686863 0.420290
vt 0.717378 0.405583
vt 0.748372 0.425906
vt 0.717987 0.368704
vt 0.686863 0.420290
vt 0.717987 0.368704
vt 0.361252 0.536318
vt 0.303284 0.513225
vt 0.321099 0.481320
vt 0.356708 0.477206
vt 0.303284 0.513224
vt 0.302087 0.451449
vt 0.297974 0.572851
vt 0.281992 0.545168
vt 0.234697 0.609385
vt 0.243630 0.547517
vt 0.297974 0.572851
vt 0.303284 0.513224
vt 0.243630 0.547517
vt 0.183907 0.569804
vt 0.206980 0.546142
vt 0.243630 0.547517
vt 0.191126 0.514905
vt 0.183907 0.569804
vt 0.243630 0.547517
vt 0.191126 0.514905
vt 0.105891 0.817896
vt 0.075820 0.836552
vt 0.044210 0.814417
vt 0.078390 0.875521
vt 0.105891 0.817896
vt 0.078390 0.875521
vt 0.140325 0.759324
vt 0.139625 0.798328
vt 0.105891 0.817896
vt 0.173693 0.818311
vt 0.105891 0.817896
vt 0.173693 0.818311
vt 0.205600 0.837027
vt 0.204911 0.875172
vt 0.166441 0.609385
vt 0.156825 0.585376
vt 0.121007 0.569854
vt 0.166441 0.609385
vt 0.274962 0.767546
vt 0.274784 0.730287
vt 0.306436 0.716759
vt 0.241882 0.708127
vt 0.271198 0.653735
vt 0.306436 0.716759
vt 0.177201 0.707197
vt 0.209651 0.689829
vt 0.208805 0.655965
vt 0.208805 0.655965
s 0
usemtl Material.001
f 1/1/1 74/2/1 163/3/1 43/4/1
f 14/5/2 161/6/2 163/3/2 74/7/2
f 13/8/3 43/4/3 163/3/3 161/9/3
f 2/10/4 44/11/4 164/12/4 46/13/4
f 14/5/5 158/14/5 164/12/5 44/15/5
f 16/16/6 46/17/6 164/12/6 158/18/6
f 1/1/7 43/19/7 165/20/7 48/21/7
f 13/8/8 155/22/8 165/20/8 43/23/8
f 18/24/9 48/25/9 165/20/9 155/26/9
f 1/1/10 48/27/10 166/28/10 50/29/10
f 18/24/11 152/30/11 166/28/11 48/27/11
f 20/31/12 50/32/12 166/28/12 152/33/12
f 1/1/13 50/29/13 167/34/13 77/35/13
f 20/31/14 149/36/14 167/34/14 50/29/14
f 17/37/15 77/35/15 167/34/15 149/38/15
f 2/10/16 46/39/16 168/40/16 53/41/16
f 16/16/17 146/42/17 168/40/17 46/17/17
f 23/43/18 53/44/18 168/40/18 146/42/18
f 3/45/19 45/46/19 169/47/19 55/48/19
f 15/49/20 143/50/20 169/47/20 45/46/20
f 25/51/21 55/48/21 169/47/21 143/50/21
f 4/52/22 49/53/22 170/54/22 57/55/22
f 19/56/23 140/57/23 170/54/23 49/58/23
f 27/59/24 57/60/24 170/54/24 140/57/24
f 5/61/25 51/62/25 171/63/25 59/64/25
f 21/65/26 137/66/26 171/63/26 51/67/26
f 29/68/27 59/64/27 171/63/27 137/69/27
f 6/70/28 52/71/28 172/72/28 61/73/28
f 22/74/29 134/75/29 172/72/29 52/71/29
f 31/76/30 61/77/30 172/72/30 134/75/30
f 2/78/31 53/79/31 173/80/31 86/81/31
f 23/82/32 131/83/32 173/80/32 53/84/32
f 26/85/33 86/81/33 173/80/33 131/83/33
f 3/45/34 55/86/34 174/87/34 88/88/34
f 25/51/35 128/89/35 174/87/35 55/86/35
f 28/90/36 88/88/36 174/87/36 128/91/36
f 4/52/37 57/92/37 175/93/37 90/94/37
f 27/59/38 125/95/38 175/93/38 57/96/38
f 30/97/39 90/98/39 175/93/39 125/99/39
f 5/61/40 59/64/40 176/100/40 92/101/40
f 29/68/41 122/102/41 176/100/41 59/64/41
f 32/103/42 92/104/42 176/100/42 122/102/42
f 6/70/43 61/105/43 177/106/43 84/107/43
f 31/76/44 119/108/44 177/106/44 61/105/44
f 24/109/45 84/110/45 177/106/45 119/111/45
f 7/112/46 63/113/46 178/114/46 68/115/46
f 33/116/47 116/117/47 178/114/47 63/113/47
f 38/118/48 68/119/48 178/114/48 116/120/48
f 8/121/49 64/122/49 179/123/49 70/124/49
f 34/125/50 113/126/50 179/123/50 64/127/50
f 40/128/51 70/129/51 179/123/51 113/130/51
f 9/131/52 65/132/52 180/133/52 71/134/52
f 35/135/53 110/136/53 180/133/53 65/132/53
f 41/137/54 71/138/54 180/133/54 110/136/54
f 10/139/55 66/140/55 181/141/55 72/142/55
f 36/143/56 107/144/56 181/141/56 66/140/56
f 42/145/57 72/146/57 181/141/57 107/144/57
f 11/147/58 67/148/58 182/149/58 99/150/58
f 37/151/59 104/152/59 182/149/59 67/153/59
f 39/154/60 99/150/60 182/149/60 104/155/60
f 39/156/61 103/157/61 183/158/61 69/159/61
f 42/160/62 102/161/62 183/158/62 103/162/62
f 12/163/63 69/164/63 183/158/63 102/165/63
f 39/154/64 104/155/64 184/166/64 103/167/64
f 37/151/65 105/168/65 184/166/65 104/152/65
f 42/145/66 103/169/66 184/166/66 105/170/66
f 37/151/67 97/171/67 185/172/67 105/168/67
f 10/139/68 72/173/68 185/172/68 97/174/68
f 42/145/69 105/168/69 185/172/69 72/146/69
f 42/160/70 106/175/70 186/176/70 102/161/70
f 41/137/71 101/177/71 186/176/71 106/178/71
f 12/163/72 102/179/72 186/176/72 101/180/72
f 42/160/73 107/181/73 187/182/73 106/178/73
f 36/183/74 108/184/74 187/182/74 107/185/74
f 41/137/75 106/175/75 187/182/75 108/186/75
f 36/183/76 96/187/76 188/188/76 108/189/76
f 9/131/77 71/190/77 188/188/77 96/187/77
f 41/137/78 108/186/78 188/188/78 71/138/78
f 41/137/79 109/191/79 189/192/79 101/180/79
f 40/128/80 100/193/80 189/192/80 109/194/80
f 12/163/81 101/177/81 189/192/81 100/193/81
f 41/137/82 110/136/82 190/195/82 109/191/82
f 35/135/83 111/196/83 190/195/83 110/136/83
f 40/128/84 109/197/84 190/195/84 111/198/84
f 35/135/85 95/199/85 191/200/85 111/201/85
f 8/121/86 70/202/86 191/200/86 95/203/86
f 40/128/87 111/198/87 191/200/87 70/204/87
f 40/128/88 112/205/88 192/206/88 100/193/88
f 38/207/89 98/208/89 192/206/89 112/209/89
f 12/163/90 100/193/90 192/206/90 98/208/90
f 40/128/91 113/210/91 193/211/91 112/205/91
f 34/125/92 114/212/92 193/211/92 113/213/92
f 38/207/93 112/205/93 193/211/93 114/212/93
f 34/214/94 94/215/94 194/216/94 114/217/94
f 7/112/95 68/218/95 194/216/95 94/219/95
f 38/118/96 114/217/96 194/216/96 68/218/96
f 38/207/97 115/220/97 195/221/97 98/222/97
f 39/156/98 69/159/98 195/221/98 115/220/98
f 12/163/99 98/222/99 195/221/99 69/164/99
f 38/118/100 116/117/100 196/223/100 115/224/100
f 33/116/101 117/225/101 196/223/101 116/117/101
f 39/226/102 115/224/102 196/223/102 117/225/102
f 33/116/103 93/227/103 197/228/103 117/229/103
f 11/230/104 99/231/104 197/228/104 93/227/104
f 39/226/105 117/232/105 197/228/105 99/231/105
f 24/109/106 118/233/106 198/234/106 54/235/106
f 37/151/107 67/236/107 198/234/107 118/237/107
f 11/147/108 54/235/108 198/234/108 67/236/108
f 24/109/109 119/238/109 199/239/109 118/240/109
f 31/76/110 120/241/110 199/239/110 119/111/110
f 37/151/111 118/242/111 199/239/111 120/241/111
f 31/76/112 91/243/112 200/244/112 120/245/112
f 10/139/113 97/246/113 200/244/113 91/247/113
f 37/151/114 120/248/114 200/244/114 97/171/114
f 32/249/115 121/250/115 201/251/115 62/252/115
f 36/143/116 66/253/116 201/251/116 121/254/116
f 10/139/117 62/255/117 201/251/117 66/256/117
f 32/103/118 122/102/118 202/257/118 121/258/118
f 29/68/119 123/259/119 202/257/119 122/260/119
f 36/261/120 121/258/120 202/257/120 123/262/120
f 29/68/121 89/263/121 203/264/121 123/265/121
f 9/266/122 96/267/122 203/264/122 89/263/122
f 36/261/123 123/262/123 203/264/123 96/268/123
f 30/269/124 124/270/124 204/271/124 60/272/124
f 35/135/125 65/132/125 204/271/125 124/273/125
f 9/131/126 60/272/126 204/271/126 65/274/126
f 30/97/127 125/95/127 205/275/127 124/276/127
f 27/59/128 126/277/128 205/275/128 125/95/128
f 35/278/129 124/279/129 205/275/129 126/280/129
f 27/59/130 87/281/130 206/282/130 126/277/130
f 8/283/131 95/284/131 206/282/131 87/285/131
f 35/278/132 126/277/132 206/282/132 95/286/132
f 28/90/133 127/287/133 207/288/133 58/289/133
f 34/290/134 64/291/134 207/288/134 127/292/134
f 8/283/135 58/293/135 207/288/135 64/294/135
f 28/90/136 128/295/136 208/296/136 127/297/136
f 25/51/137 129/298/137 208/296/137 128/295/137
f 34/290/138 127/297/138 208/296/138 129/299/138
f 25/300/139 85/301/139 209/302/139 129/303/139
f 7/112/140 94/219/140 209/302/140 85/304/140
f 34/214/141 129/303/141 209/302/141 94/305/141
f 26/85/142 130/306/142 210/307/142 56/308/142
f 33/116/143 63/309/143 210/307/143 130/310/143
f 7/112/144 56/308/144 210/307/144 63/309/144
f 26/85/145 131/83/145 211/311/145 130/306/145
f 23/82/146 132/312/146 211/311/146 131/83/146
f 33/116/147 130/310/147 211/311/147 132/313/147
f 23/82/148 83/314/148 212/315/148 132/316/148
f 11/230/149 93/317/149 212/315/149 83/318/149
f 33/116/150 132/312/150 212/315/150 93/319/150
f 31/76/151 133/320/151 213/321/151 91/247/151
f 32/249/152 62/322/152 213/321/152 133/323/152
f 10/139/153 91/324/153 213/321/153 62/322/153
f 31/76/154 134/325/154 214/326/154 133/323/154
f 22/74/155 135/327/155 214/326/155 134/328/155
f 32/249/156 133/323/156 214/326/156 135/329/156
f 22/330/157 82/331/157 215/332/157 135/333/157
f 5/61/158 92/334/158 215/332/158 82/331/158
f 32/103/159 135/333/159 215/332/159 92/335/159
f 29/68/160 136/336/160 216/337/160 89/263/160
f 30/338/161 60/339/161 216/337/161 136/336/161
f 9/266/162 89/340/162 216/337/162 60/339/162
f 29/68/163 137/341/163 217/342/163 136/336/163
f 21/65/164 138/343/164 217/342/164 137/344/164
f 30/338/165 136/345/165 217/342/165 138/346/165
f 21/65/166 81/347/166 218/348/166 138/346/166
f 4/349/167 90/350/167 218/348/167 81/351/167
f 30/338/168 138/346/168 218/348/168 90/350/168
f 27/59/169 139/352/169 219/353/169 87/285/169
f 28/90/170 58/289/170 219/353/170 139/354/170
f 8/283/171 87/281/171 219/353/171 58/289/171
f 27/59/172 140/355/172 220/356/172 139/354/172
f 19/56/173 141/357/173 220/356/173 140/57/173
f 28/90/174 139/358/174 220/356/174 141/359/174
f 19/56/175 79/360/175 221/361/175 141/362/175
f 3/45/176 88/363/176 221/361/176 79/364/176
f 28/90/177 141/365/177 221/361/177 88/363/177
f 25/300/178 142/366/178 222/367/178 85/368/178
f 26/85/179 56/369/179 222/367/179 142/370/179
f 7/112/180 85/371/180 222/367/180 56/308/180
f 25/300/181 143/372/181 223/373/181 142/370/181
f 15/374/182 144/375/182 223/373/182 143/376/182
f 26/85/183 142/377/183 223/373/183 144/378/183
f 15/374/184 75/379/184 224/380/184 144/381/184
f 2/78/185 86/382/185 224/380/185 75/379/185
f 26/85/186 144/383/186 224/380/186 86/382/186
f 23/384/187 145/385/187 225/386/187 83/387/187
f 24/109/188 54/235/188 225/386/188 145/385/188
f 11/147/189 83/387/189 225/386/189 54/388/189
f 23/384/190 146/389/190 226/390/190 145/391/190
f 16/392/191 147/393/191 226/390/191 146/394/191
f 24/109/192 145/391/192 226/390/192 147/395/192
f 16/392/193 76/396/193 227/397/193 147/398/193
f 6/70/194 84/107/194 227/397/194 76/399/194
f 24/109/195 147/393/195 227/397/195 84/400/195
f 17/37/196 148/401/196 228/402/196 47/403/196
f 22/404/197 52/405/197 228/402/197 148/406/197
f 6/407/198 47/408/198 228/402/198 52/409/198
f 17/37/199 149/38/199 229/410/199 148/411/199
f 20/31/200 150/412/200 229/410/200 149/413/200
f 22/404/201 148/411/201 229/410/201 150/412/201
f 20/414/202 80/415/202 230/416/202 150/417/202
f 5/61/203 82/418/203 230/416/203 80/419/203
f 22/330/204 150/420/204 230/416/204 82/418/204
f 20/414/205 151/421/205 231/422/205 80/415/205
f 21/65/206 51/67/206 231/422/206 151/421/206
f 5/61/207 80/423/207 231/422/207 51/424/207
f 20/414/208 152/425/208 232/426/208 151/427/208
f 18/428/209 153/429/209 232/426/209 152/425/209
f 21/65/210 151/430/210 232/426/210 153/431/210
f 18/428/211 78/432/211 233/433/211 153/434/211
f 4/349/212 81/435/212 233/433/212 78/436/212
f 21/65/213 153/434/213 233/433/213 81/437/213
f 18/438/214 154/439/214 234/440/214 78/441/214
f 19/56/215 49/53/215 234/440/215 154/442/215
f 4/52/216 78/441/216 234/440/216 49/443/216
f 18/438/217 155/444/217 235/445/217 154/442/217
f 13/446/218 156/447/218 235/445/218 155/448/218
f 19/56/219 154/449/219 235/445/219 156/450/219
f 13/446/220 73/451/220 236/452/220 156/453/220
f 3/45/221 79/454/221 236/452/221 73/455/221
f 19/56/222 156/456/222 236/452/222 79/457/222
f 16/16/223 157/458/223 237/459/223 76/460/223
f 17/37/224 47/461/224 237/459/224 157/462/224
f 6/407/225 76/460/225 237/459/225 47/463/225
f 16/16/226 158/464/226 238/465/226 157/466/226
f 14/5/227 159/467/227 238/465/227 158/464/227
f 17/37/228 157/468/228 238/465/228 159/469/228
f 14/5/229 74/2/229 239/470/229 159/467/229
f 1/1/230 77/471/230 239/470/230 74/2/230
f 17/37/231 159/469/231 239/470/231 77/35/231
f 13/446/232 160/472/232 240/473/232 73/451/232
f 15/49/233 45/474/233 240/473/233 160/475/233
f 3/45/234 73/451/234 240/473/234 45/46/234
f 13/8/235 161/476/235 241/477/235 160/478/235
f 14/5/236 162/479/236 241/477/236 161/6/236
f 15/480/237 160/481/237 241/477/237 162/479/237
f 14/5/238 44/482/238 242/483/238 162/479/238
f 2/10/239 75/484/239 242/483/239 44/482/239
f 15/480/240 162/479/240 242/483/240 75/485/240
